<svg xmlns="http://www.w3.org/2000/svg">
  <defs>
    <g id='left-arrow' enable-background="new 0 0 24 24" viewBox="0 0 24 24" fill="#000000" width="48px" height="48px"><g><rect fill="none" height="24" width="24" y="0"/></g><g><path d="M15.29,15.46l-3.88-3.88l3.88-3.88c0.39-0.39,0.39-1.02,0-1.41l0,0c-0.39-0.39-1.02-0.39-1.41,0l-4.59,4.59 c-0.39,0.39-0.39,1.02,0,1.41l4.59,4.59c0.39,0.39,1.02,0.39,1.41,0l0,0C15.67,16.49,15.68,15.85,15.29,15.46z"/></g></g>
    <g id='low-arrow' viewBox="0 0 24 24" fill="#FB4047" width="18px" height="18px"><path d="M0 0h24v24H0V0z" fill="none"/><path d="M11 5v11.17l-4.88-4.88c-.39-.39-1.03-.39-1.42 0-.39.39-.39 1.02 0 1.41l6.59 6.59c.39.39 1.02.39 1.41 0l6.59-6.59c.39-.39.39-1.02 0-1.41-.39-.39-1.02-.39-1.41 0L13 16.17V5c0-.55-.45-1-1-1s-1 .45-1 1z"/></g>
    <g id='high-arrow' viewBox="0 0 24 24" fill="#2DCE89" width="18px" height="18px"><path d="M0 0h24v24H0V0z" fill="none"/><path d="M13 19V7.83l4.88 4.88c.39.39 1.03.39 1.42 0 .39-.39.39-1.02 0-1.41l-6.59-6.59c-.39-.39-1.02-.39-1.41 0l-6.6 6.58c-.39.39-.39 1.02 0 1.41.39.39 1.02.39 1.41 0L11 7.83V19c0 .55.45 1 1 1s1-.45 1-1z"/></g>
    <g id='copy' viewBox="0 0 24 24" width="18px" height="18px"><path d="M0 0h24v24H0V0z" fill="none"/><path d="M16 1H4c-1.1 0-2 .9-2 2v14h2V3h12V1zm3 4H8c-1.1 0-2 .9-2 2v14c0 1.1.9 2 2 2h11c1.1 0 2-.9 2-2V7c0-1.1-.9-2-2-2zm0 16H8V7h11v14z"/></g>

    <g id='arrow-down' viewBox="0 0 24 24" fill="#555" width="18px" height="18px"><path d="M0 0h24v24H0V0z" fill="none"/><path d="M7.41 8.59L12 13.17l4.59-4.58L18 10l-6 6-6-6 1.41-1.41z"/></g>
    <g id='arrow-up' viewBox="0 0 24 24" fill="#555" width="18px" height="18px"><path d="M0 0h24v24H0z" fill="none"/><path d="M7.41 15.41L12 10.83l4.59 4.58L18 14l-6-6-6 6z"/></g>
    <g id='arrow-right' viewBox="0 0 24 24" fill="#DADADA" width="24px" height="24px"><path d="M0 0h24v24H0V0z" fill="none"/><path d="M9.29 6.71c-.39.39-.39 1.02 0 1.41L13.17 12l-3.88 3.88c-.39.39-.39 1.02 0 1.41.39.39 1.02.39 1.41 0l4.59-4.59c.39-.39.39-1.02 0-1.41L10.7 6.7c-.38-.38-1.02-.38-1.41.01z"/></g>

    <g id='home' height="24px" viewBox="0 0 24 24" width="24px"><path d="M0 0h24v24H0V0z" fill="none"/><path d="M10 19v-5h4v5c0 .55.45 1 1 1h3c.55 0 1-.45 1-1v-7h1.7c.46 0 .68-.57.33-.87L12.67 3.6c-.38-.34-.96-.34-1.34 0l-8.36 7.53c-.34.3-.13.87.33.87H5v7c0 .55.45 1 1 1h3c.55 0 1-.45 1-1z"/></g>
    <g id='account' height="24px" viewBox="0 0 24 24" width="24px"><path d="M0 0h24v24H0V0z" fill="none"/><path d="M12 12c2.21 0 4-1.79 4-4s-1.79-4-4-4-4 1.79-4 4 1.79 4 4 4zm0 2c-2.67 0-8 1.34-8 4v1c0 .55.45 1 1 1h14c.55 0 1-.45 1-1v-1c0-2.66-5.33-4-8-4z"/></g>
    <g id='search' height="24px" viewBox="0 0 24 24" width="24px"><path d="M0 0h24v24H0V0z" fill="none"/><path d="M15.5 14h-.79l-.28-.27c1.2-1.4 1.82-3.31 1.48-5.34-.47-2.78-2.79-5-5.59-5.34-4.23-.52-7.79 3.04-7.27 7.27.34 2.8 2.56 5.12 5.34 5.59 2.03.34 3.94-.28 5.34-1.48l.27.28v.79l4.25 4.25c.41.41 1.08.41 1.49 0 .41-.41.41-1.08 0-1.49L15.5 14zm-6 0C7.01 14 5 11.99 5 9.5S7.01 5 9.5 5 14 7.01 14 9.5 11.99 14 9.5 14z"/></g>
    <g id='cart' height="24px" viewBox="0 0 24 24" width="24px"><path d="M0 0h24v24H0V0z" fill="none"/><path d="M22 9h-4.79l-4.39-6.57c-.4-.59-1.27-.59-1.66 0L6.77 9H2c-.55 0-1 .45-1 1 0 .09.01.18.04.27l2.54 9.27c.23.84 1 1.46 1.92 1.46h13c.92 0 1.69-.62 1.93-1.46l2.54-9.27L23 10c0-.55-.45-1-1-1zM11.99 4.79L14.8 9H9.18l2.81-4.21zM12 17c-1.1 0-2-.9-2-2s.9-2 2-2 2 .9 2 2-.9 2-2 2z"/></g>

    <g id='inc' height="24px" viewBox="0 0 24 24" width="24px"><g><rect fill="none" height="24" width="24"/></g><g><g><path d="M19,13h-6v6h-2v-6H5v-2h6V5h2v6h6V13z"/></g></g></g>
    <g id='dec' height="24px" viewBox="0 0 24 24" width="24px"><path d="M0 0h24v24H0z" fill="none"/><path d="M19 13H5v-2h14v2z"/></g>

    <g id='goback' height="24px" viewBox="0 0 24 24" width="24px" fill="#333"><path d="M0 0h24v24H0z" fill="none"/><path d="M20 11H7.83l5.59-5.59L12 4l-8 8 8 8 1.41-1.41L7.83 13H20v-2z"/></g>
    <g id='checkmark' height="24px" viewBox="0 0 24 24" width="24px" fill="#41A251"><path d="M0 0h24v24H0z" fill="none"/><path d="M9 16.17L4.83 12l-1.42 1.41L9 19 21 7l-1.41-1.41z"/></g>
  </defs>
</svg>
