<svg xmlns="http://www.w3.org/2000/svg" xmlns:xlink="http://www.w3.org/1999/xlink" height="48px" width="48px" fill="#000000" version="1.1" x="0px" y="0px" viewBox="0 0 48 48"><g><g><path d="M24,25c3.3085938,0,6-2.6914063,6-6s-2.6914063-6-6-6s-6,2.6914063-6,6S20.6914063,25,24,25z M24,15    c2.2055664,0,4,1.7944336,4,4s-1.7944336,4-4,4s-4-1.7944336-4-4S21.7944336,15,24,15z"/><path d="M24,8C15.1777344,8,8,15.1777344,8,24s7.1777344,16,16,16s16-7.1777344,16-16S32.8222656,8,24,8z M24,10    c7.7197266,0,14,6.2802734,14,14c0,2.8276367-0.8490601,5.4577637-2.2963867,7.6612549C32.8661499,28.1114502,28.5733032,26,24,26    c-4.572876,0-8.8656616,2.1114502-11.7037354,5.6610718C10.848999,29.4575806,10,26.8275757,10,24    C10,16.2802734,16.2802734,10,24,10z M24,38c-4.1538696,0-7.8796997-1.8286133-10.4458618-4.7111816    C16.0039673,29.9777222,19.8737183,28,24,28c4.12677,0,7.996582,1.9776611,10.4458008,5.2889404    C31.8796387,36.1713867,28.1538086,38,24,38z"/></g></g></svg>