<svg xmlns="http://www.w3.org/2000/svg" xmlns:xlink="http://www.w3.org/1999/xlink" height="300px" width="300px" fill="#CC0000" version="1.1" x="0px" y="0px" viewBox="0 0 98 98" style="enable-background:new 0 0 98 98;" xml:space="preserve"><title>31</title><g><path d="M40.8,37.9c-1.7,0-3,1.3-3,3V68c0,1.7,1.3,3,3,3c1.6-0.1,2.9-1.4,3-3V40.9C43.7,39.3,42.4,38,40.8,37.9z"/><path d="M57.2,37.9c-1.6,0.1-2.9,1.4-3,3V68c0.1,1.6,1.4,2.9,3,3c1.7,0,3-1.3,3-3V40.9C60.2,39.2,58.9,37.9,57.2,37.9z"/><path d="M83.1,23.1H65.8v-2.9c0-4.4-3.6-8-8-8H40.2c-4.4,0-8,3.6-8,8v2.9H14.9c-1.7,0-3,1.3-3,3c-0.1,1.6,1.2,2.9,2.8,3   c0.1,0,0.1,0,0.2,0h5.3l3.2,49.2c0.2,4.2,3.7,7.6,8,7.5h35.2c4.3,0.1,7.8-3.3,8-7.5l3.2-49.2h5.3c1.6,0.1,2.9-1.2,3-2.8   c0-0.1,0-0.1,0-0.2C86.1,24.4,84.8,23.1,83.1,23.1L83.1,23.1z M38.2,20.2c0-1.1,0.9-2,2-2h17.6c1.1,0,2,0.9,2,2v2.9H38.2V20.2z    M68.6,77.9c0,1-0.8,1.9-1.9,1.9c0,0-0.1,0-0.1,0H31.4c-1,0.1-1.9-0.7-2-1.8c0,0,0-0.1,0-0.1l-3.1-48.8h45.4L68.6,77.9z"/></g></svg>