<svg xmlns="http://www.w3.org/2000/svg" height="96px" width="96px" fill="#000000" data-name="Layer 1" viewBox="0 0 100 100" x="0px" y="0px"><title>Artboard 1 copy 81</title><path d="M11.17,53.82C24.37,41.1,37.42,28,51.67,16.4H46.36C60.2,27.75,72.19,41.22,85,53.65c3.46,3.36,8.77-1.93,5.3-5.3C77.49,35.91,65.51,22.45,51.67,11.1a3.9,3.9,0,0,0-5.31,0C32.11,22.66,19.07,35.8,5.86,48.52c-3.48,3.35,1.83,8.65,5.31,5.3Z"/><path d="M16.74,41.87c0,12.34.22,24.68.5,37A3.8,3.8,0,0,0,21,82.64H39.32a3.81,3.81,0,0,0,3.75-3.75l.42-20.16-3.75,3.75,18.26,0-3.75-3.75,0,20.12A3.8,3.8,0,0,0,58,82.64H76.49a3.82,3.82,0,0,0,3.75-3.75q.21-18.78.52-37.56c.09-4.82-7.41-4.83-7.5,0q-.33,18.78-.52,37.56l3.75-3.75H58l3.75,3.75,0-20.12A3.81,3.81,0,0,0,58,55L39.74,55A3.8,3.8,0,0,0,36,58.73l-.42,20.16,3.75-3.75H21l3.75,3.75c-.28-12.34-.49-24.68-.5-37,0-4.82-7.51-4.83-7.5,0Z"/></svg>