<svg xmlns="http://www.w3.org/2000/svg" height="300" width="300" viewBox="0 0 100 100"><path style="text-indent:0;text-transform:none;direction:ltr;block-progression:tb;baseline-shift:baseline;color:#000;enable-background:accumulate" d="M11 968.362c-3.29 0-6 2.71-6 6v56c0 3.29 2.71 6 6 6h78c3.29 0 6-2.71 6-6v-56c0-3.29-2.71-6-6-6zm0 4h78c1.143 0 2 .858 2 2v47.813l-17.531-19.188a2.03 2.03 0 0 0-2.938 0l-14.312 15.188L35.5 995.018a2.038 2.038 0 0 0-1.813-.656c-.44.072-.855.296-1.156.625L9 1020.268v-45.906c0-1.142.857-2 2-2zm46 10c-4.395 0-8 3.606-8 8 0 4.395 3.605 8 8 8s8-3.605 8-8c0-4.394-3.605-8-8-8zm0 4c2.233 0 4 1.767 4 4s-1.767 4-4 4a3.97 3.97 0 0 1-4-4c0-2.233 1.767-4 4-4zm-23.031 12.969 29.562 33.031H11c-1.143 0-2-.857-2-2v-4.219zm38 7.969L91 1028.112v2.25c0 1.143-.857 2-2 2H68.906l-10-11.187z" overflow="visible" transform="translate(0 -952.362)"/></svg>