<svg xmlns="http://www.w3.org/2000/svg" xmlns:xlink="http://www.w3.org/1999/xlink" height="96px" width="96px" fill="#000000" version="1.1" x="0px" y="0px" viewBox="0 0 48 48" enable-background="new 0 0 48 48" xml:space="preserve"><g><g><g><path d="M24.0033627,39.8447266c-0.2636719,0-0.5170898-0.1044922-0.7050781-0.2910156l-0.2304688-0.2304688     c-3.4550781-3.4521484-6.0688477-5.8828125-8.3754873-8.0283203c-0.6938477-0.6455078-1.3637695-1.2695313-2.0258789-1.8916016     c-2.4858398-2.3398438-4.8032227-4.6660156-5.8535156-7.3974609C5.5497503,18.7148438,5.9101019,15.25,7.8017035,12.4980469     c1.8686523-2.7197266,4.956543-4.3427734,8.2597647-4.3427734c2.71875,0,5.402832,1.0839844,7.7617188,3.1357422     l0.1762695,0.1728516l0.1308594-0.1298828c2.4057617-2.0947266,5.0893555-3.1787109,7.8081055-3.1787109     c3.3027363,0,6.3906269,1.6230469,8.2597675,4.3427734c1.8916016,2.7519531,2.2519531,6.2177734,0.9892578,9.5068359     c-1.0498047,2.7294922-3.3671875,5.0566406-5.8525391,7.3974609c-0.6621094,0.6220703-1.3310547,1.2441406-2.0224609,1.8876953     c-2.3076191,2.1464844-4.92383,4.5791016-8.380373,8.0332031c-0.0698242,0.0703125-0.1279297,0.1279297-0.190918,0.1962891     c-0.1835938,0.2011719-0.4418945,0.3183594-0.7138672,0.3251953     C24.0194759,39.8447266,24.0111752,39.8447266,24.0033627,39.8447266z M16.0614681,10.1552734     c-2.6445303,0-5.11621,1.2988281-6.6118155,3.4755859c-1.5126953,2.2011719-1.793457,4.9921875-0.7700195,7.6572266     c0.8994141,2.3378906,3.046875,4.4833984,5.3569336,6.6582031c0.6591797,0.6201172,1.3266602,1.2412109,2.0180655,1.8837891     c2.2104492,2.0566406,4.7021484,4.3740234,7.9453125,7.5986328c3.2509766-3.2324219,5.7412109-5.5478516,7.9501953-7.6025391     c0.689455-0.6416016,1.3554707-1.2617188,2.0146503-1.8798828c2.3085938-2.1757813,4.4570313-4.3222656,5.3554688-6.6591797     c1.0234375-2.6640625,0.7421875-5.4550781-0.7705078-7.65625c-1.4960938-2.1767578-3.9667969-3.4755859-6.61133-3.4755859     c-2.2294922,0-4.4589844,0.9150391-6.4492188,2.6455078l-0.7832031,0.7763672     c-0.3886719,0.3818359-1.0126953,0.3847656-1.4023438,0.0029297l-0.8364258-0.8193359     C20.5209408,11.0703125,18.2909603,10.1552734,16.0614681,10.1552734z"/></g></g></g></svg>