<svg xmlns="http://www.w3.org/2000/svg" xmlns:xlink="http://www.w3.org/1999/xlink" height="96px" width="96px" fill="#000000" version="1.1" x="0px" y="0px" viewBox="0 0 48 48" enable-background="new 0 0 48 48" xml:space="preserve"><g><g><path d="M40.1982422,12.4980469c-1.8691406-2.7197266-4.9570313-4.3427734-8.2597656-4.3427734    c-2.71875,0-5.4023438,1.0839844-7.8081055,3.1787109l-0.1308594,0.1298828l-0.1762695-0.1728516    c-2.3588867-2.0517578-5.0429688-3.1357422-7.7617188-3.1357422c-3.3032227,0-6.3911133,1.6230469-8.2597656,4.3427734    C5.9101563,15.25,5.5498047,18.7148438,6.8129883,22.0058594c1.050293,2.7314453,3.3676758,5.0576172,5.8535156,7.3974609    c0.6621094,0.6220703,1.3320313,1.2460938,2.0258789,1.8916016c2.3066406,2.1455078,4.9204102,4.5761719,8.3754883,8.0283203    l0.2304688,0.2304688c0.1879883,0.1865234,0.4414063,0.2910156,0.7050781,0.2910156c0.0078125,0,0.0161133,0,0.0239258,0    c0.2719727-0.0068359,0.5302734-0.1240234,0.7138672-0.3251953c0.0629883-0.0683594,0.1210938-0.1259766,0.190918-0.1962891    c3.456543-3.4541016,6.0727539-5.8867188,8.3803673-8.0332031c0.6914101-0.6435547,1.3603554-1.265625,2.0224648-1.8876953    c2.4853516-2.3408203,4.8027344-4.6679688,5.8525352-7.3974609C42.4501953,18.7158203,42.0898438,15.25,40.1982422,12.4980469z"/></g></g></svg>