<svg xmlns="http://www.w3.org/2000/svg" xmlns:xlink="http://www.w3.org/1999/xlink" height="128px" width="128px" fill="#000000" viewBox="0 0 100 100" version="1.1" x="0px" y="0px"><title>Search v1.4</title><desc>Created with Sketch.</desc><g stroke="none" stroke-width="1" fill="none" fill-rule="evenodd"><g fill-rule="nonzero" fill="#000000"><path d="M57.9266726,55.0982455 L68.4142136,65.5857864 L65.5857864,68.4142136 L55.0982455,57.9266726 C52.5746478,59.8547284 49.4210701,61 46,61 C37.7157288,61 31,54.2842712 31,46 C31,37.7157288 37.7157288,31 46,31 C54.2842712,31 61,37.7157288 61,46 C61,49.4210701 59.8547284,52.5746478 57.9266726,55.0982455 L57.9266726,55.0982455 Z M46,57 C52.0751322,57 57,52.0751322 57,46 C57,39.9248678 52.0751322,35 46,35 C39.9248678,35 35,39.9248678 35,46 C35,52.0751322 39.9248678,57 46,57 Z"/></g></g></svg>