<svg xmlns="http://www.w3.org/2000/svg" width="17" height="17" viewBox="0 0 17 17"><defs><style>.a{fill:#fec900;}.b,.c{stroke:none;}</style></defs><g class="a"><path class="b" d="M 13.47903537750244 16.61014366149902 L 8.600199699401855 13.78586006164551 L 8.5 13.72786045074463 L 8.399800300598145 13.78586006164551 L 3.520964622497559 16.61014366149902 L 4.570779800415039 10.84278964996338 L 4.589710235595703 10.73878955841064 L 4.514440059661865 10.66456985473633 L 0.4315574169158936 6.638123512268066 L 5.976210117340088 5.90526008605957 L 6.087009906768799 5.890610218048096 L 6.132599830627441 5.788569927215576 L 8.5 0.4902541637420654 L 10.86740016937256 5.788559913635254 L 10.91298961639404 5.890600204467773 L 11.02379035949707 5.905250072479248 L 16.56844329833984 6.63812255859375 L 12.48556041717529 10.66456985473633 L 12.4102897644043 10.73878955841064 L 12.42922019958496 10.84278964996338 L 13.47903537750244 16.61014366149902 Z"/><path class="c" d="M 8.5 0.9805088043212891 L 6.315199851989746 5.870160102844238 L 6.224010467529297 6.074239730834961 L 6.002409934997559 6.103529930114746 L 0.8631134033203125 6.782814979553223 L 4.654879570007324 10.5221700668335 L 4.805399894714355 10.67061042785645 L 4.767539978027344 10.87860012054443 L 3.795206069946289 16.22029495239258 L 8.299599647521973 13.61277008056641 L 8.5 13.49675941467285 L 8.700400352478027 13.61277008056641 L 13.20479393005371 16.22029495239258 L 12.23246002197266 10.87860012054443 L 12.19460010528564 10.67061042785645 L 12.34511947631836 10.5221700668335 L 16.13688850402832 6.782814025878906 L 10.99759006500244 6.103520393371582 L 10.7759895324707 6.074230194091797 L 10.68480014801025 5.870149612426758 L 8.5 0.9805088043212891 M 8.5 0 L 11.05000019073486 5.70697021484375 L 17 6.493419647216797 L 12.62598991394043 10.80697059631348 L 13.7532901763916 17 L 8.5 13.95895004272461 L 3.246709823608398 17 L 4.37401008605957 10.80697059631348 L 0 6.493419647216797 L 5.949999809265137 5.706979751586914 L 8.5 0 Z"/></g></svg>